# xmcd
#
# Track frame offsets:
#	150
#	13282
#	24735
#	41335
#	55680
#	67115
#	78380
#	90375
#	101832
#	118197
#	136802
#	152652
#	165165
#	177425
#
# Disc length: 2508 seconds
#
# Revision: 0
# Processed by: cddbd v1.5.2PL0 Copyright (c) Steve Scherf et al.
# Submitted via: dBpowerAMP V4.0
#
DISCID=af09ca0e
DTITLE=Maysa - Série Bis (Disco 2)
DYEAR=1900
DGENRE=Latin
TTITLE0=Dindi
TTITLE1=A Felicidade
TTITLE2=Bom Dia Tristeza
TTITLE3=Manhã de Carnaval
TTITLE4=O Grande Amor
TTITLE5=Bloco da Solidão
TTITLE6=Você Abusou
TTITLE7=Agora é Cinza
TTITLE8=Ne Me Quitte Pas
TTITLE9=Tarde Triste - Meu Mundo Caiu - Ouça
TTITLE10=Se Todos Fosem Iguais a Você
TTITLE11=Eu e a Brisa
TTITLE12=Hoje é o Dia do Amor
TTITLE13=Tema Triste
EXTD=
EXTT0=
EXTT1=
EXTT2=
EXTT3=
EXTT4=
EXTT5=
EXTT6=
EXTT7=
EXTT8=
EXTT9=
EXTT10=
EXTT11=
EXTT12=
EXTT13=
PLAYORDER=
